<svg xmlns="http://www.w3.org/2000/svg" width="115" height="45" viewBox="14 47 115 45" data-ember-extension="1"><path d="M128.771 79.973c-.291 1.229-1.14 1.994-2.23 2.457-1.579.668-3.161 1.385-4.812 1.811-2.072.531-3.916-.33-4.769-2.289-.665-1.529-.934-3.229-1.376-4.854-.054-.198-.091-.402-.346-.652-.135.289-.291.57-.399.868-1.196 3.272-2.362 6.556-3.589 9.815-.357.949-.789 1.896-1.348 2.74-.947 1.43-2.352 1.453-3.359.053-.469-.65-.692-1.477-1.079-2.34-2.492 2.193-5.455 3.377-8.903 3.314-3.629-.068-6.281-1.684-8.1-4.914-.412.223-.79.439-1.177.635-4.029 2.041-8.335 3.25-12.749 4.039-2.65.477-5.158-.209-7.401-1.695-.606-.4-1.015-.324-1.625-.014-1.358.688-2.739 1.408-4.196 1.809-2.053.564-3.646-.373-4.004-2.465s-.368-4.252-.427-6.387c-.037-1.324.12-2.656-.024-4.08-.183.293-.418.565-.541.881-1.063 2.738-2.1 5.486-3.157 8.225-.322.832-.626 1.68-1.045 2.463-.419.785-1.017 1.408-2.06 1.25-1.269-.193-2.56-.578-2.707-2.002-.175-1.697-.07-3.439.078-5.146.163-1.867.515-3.719.587-5.705-.238.32-.539.611-.705.965-1.196 2.545-2.349 5.111-3.549 7.654-.45.951-.949 1.887-1.497 2.785-.623 1.021-1.388 1.795-2.791 1.582-1.465-.223-2.019-1.191-2.33-2.447l-.115-.537c-.627.34-1.202.637-1.764.957-2.182 1.252-4.549 1.869-7.042 1.953-3.742.127-6.459-1.738-7.613-5.318-.318-.986-.794-1.328-1.767-1.463-1.194-.162-2.359-.549-3.533-.852-.804-.207-1.082-.781-.906-1.537.113-.486.335-.959.568-1.406.416-.795.988-.795 1.766-.42.722.346 1.539.51 2.326.705 1.007.248 1.227-.371 1.342-1.205.32-2.307 1.063-4.477 2.334-6.44 1.184-1.828 2.699-3.365 4.903-3.725 1.373-.225 2.909-.199 4.233.189 2.809.824 4.076 3.859 3.119 6.876-.648 2.045-1.993 3.59-3.716 4.756-1.422.963-2.964 1.76-4.497 2.543-1.046.535-1.185 1.219-.234 1.957.903.701 1.988.756 3.031.572 2.77-.486 5.146-1.889 7.422-3.453.273-.188.367-.707.449-1.094.735-3.465 1.418-6.94 2.181-10.398.462-2.097 1.37-2.653 3.519-2.312.905.144 1.242.802 1.168 1.601-.173 1.873-.419 3.74-.666 5.605-.115.873-.3 1.734-.454 2.602l.224.107c.132-.171.287-.328.393-.514 1.115-1.942 2.184-3.912 3.342-5.828.93-1.539 2.149-2.787 3.98-3.259 1.469-.379 2.15.058 2.275 1.555.199 2.376-.461 4.624-1.094 6.872-.097.344-.182.69-.068 1.135.122-.109.277-.197.36-.33 1.541-2.471 3.053-4.958 4.62-7.411.335-.524.818-.979 1.306-1.376.91-.741 1.913-.993 3.013-.349 1.05.615 1.075 1.677.968 2.629-.322 2.854-.834 5.688-1.158 8.543-.161 1.416-.171 2.867-.067 4.289.083 1.145.745 1.504 1.815 1.049.87-.367 1.711-.869 2.448-1.459.336-.268.499-.875.557-1.35.744-6.123 1.415-12.255 2.187-18.375.557-4.418 1.949-8.581 4.095-12.497 1.111-2.029 2.828-3.273 4.929-4.047 1.723-.635 3.208-.093 4.089 1.516 1.524 2.789 1.536 5.77.882 8.775-.895 4.107-2.945 7.677-5.331 11.076l-.438.631-.026.182.151.065c2.796-1.823 5.18.087 6.494 2.209 1.395 2.249 1.301 4.718.683 7.153-.403 1.59-1.062 3.115-1.645 4.773.324-.115.62-.193.891-.322.605-.291 1.195-.613 1.797-.912 1.893-.938 3.248-2.008 3.587-4.488.521-3.826 2.649-6.961 5.873-9.219 1.625-1.139 3.492-1.438 5.409-1.142 1.672.258 2.745 1.351 3.189 2.965.884 3.209.218 6.07-2.059 8.531-1.67 1.807-3.76 2.955-6.005 3.865l-.881.344c.36 1.127 1.5 1.912 3.043 1.855 1.066-.039 2.225-.17 3.161-.629 1.885-.924 3.657-2.078 5.443-3.191.268-.166.439-.598.519-.938.843-3.603 1.63-7.22 2.493-10.818.308-1.281 1.919-1.988 3.057-1.38.259.139.465.611.474.937.048 1.632.021 3.266.021 4.9 0 .314 0 .629.221 1.029l.396-.727c.856-1.457 1.607-2.994 2.617-4.336.56-.744 1.491-1.295 2.364-1.694 1.084-.495 1.751-.104 1.884 1.111.159 1.451.071 2.928.13 4.392.056 1.362.027 2.749.286 4.076.244 1.25 1.177 1.781 2.392 1.434 1.274-.363 2.537-.857 3.705-1.48 1.44-.768 1.796-.762 2.585.6v.961zm-55.717 6.785c1.626.018 3.094-.631 4.101-2.055 1.596-2.254 2.287-4.797 1.826-7.537-.224-1.33-.731-2.629-2.323-2.976-1.61-.351-3.05.21-3.982 1.651-.429.664-.818 1.398-1.016 2.155-.496 1.911-1.026 3.835-1.261 5.79-.299 2.47-.463 2.761 2.655 2.972zm-1.918-16.563l.332.076c.591-1.022 1.206-2.031 1.77-3.068 1.922-3.54 3.89-7.07 4.885-11.009.258-1.018.269-2.149.14-3.198-.115-.941-.799-1.089-1.382-.33-.655.855-1.225 1.797-1.702 2.766-1.738 3.529-2.395 7.394-3.346 11.164-.3 1.183-.469 2.399-.697 3.599zm27.997 4.743c-.168-.509-.271-1.051-.515-1.52-.596-1.145-1.69-1.369-2.601-.447-1.754 1.777-2.558 4.018-2.791 6.463-.021.225.394.699.617.707 2.398.078 5.193-2.745 5.29-5.203zm-73.799 4.208c-.054.697-.061 1.121.65 1.041 2.081-.23 4.723-2.48 5.196-4.458.273-1.139-.07-2.302-.81-2.75-.664-.402-1.68-.127-2.585.719-1.638 1.531-2.205 3.531-2.451 5.448z" fill-rule="evenodd" clip-rule="evenodd" fill="#FFFFFF"/></svg>
